<svg width="20" height="20" viewBox="0 0 20 20" fill="none" xmlns="http://www.w3.org/2000/svg">
<path d="M10 1.25L2.5 3.75V11.25C2.5 15.3926 5.85742 18.75 10 18.75C14.1426 18.75 17.5 15.3926 17.5 11.25V3.75L10 1.25ZM16.0938 11.25C16.0938 14.6152 13.3652 17.3438 10 17.3438C6.63477 17.3438 3.90625 14.6152 3.90625 11.25V4.80469L10 2.65625L16.0938 4.80469V11.25Z" fill="black"/>
<path d="M7.39064 9.2793C7.32547 9.21383 7.24801 9.16188 7.16271 9.12643C7.07741 9.09099 6.98595 9.07274 6.89357 9.07274C6.8012 9.07274 6.70973 9.09099 6.62443 9.12643C6.53913 9.16188 6.46167 9.21383 6.3965 9.2793C6.33103 9.34447 6.27908 9.42193 6.24364 9.50723C6.20819 9.59253 6.18994 9.68399 6.18994 9.77637C6.18994 9.86874 6.20819 9.96021 6.24364 10.0455C6.27908 10.1308 6.33103 10.2083 6.3965 10.2734L8.92385 12.8008L8.96487 12.8418C9.02651 12.9036 9.09973 12.9526 9.18033 12.986C9.26093 13.0194 9.34734 13.0366 9.4346 13.0366C9.52186 13.0366 9.60826 13.0194 9.68886 12.986C9.76946 12.9526 9.84268 12.9036 9.90433 12.8418L14.2696 8.47656C14.3313 8.41492 14.3803 8.3417 14.4138 8.2611C14.4472 8.1805 14.4644 8.0941 14.4644 8.00684C14.4644 7.91958 14.4472 7.83317 14.4138 7.75257C14.3803 7.67197 14.3313 7.59875 14.2696 7.53711L14.2149 7.48242C14.1532 7.42066 14.08 7.37167 13.9994 7.33824C13.9188 7.3048 13.8324 7.2876 13.7452 7.2876C13.6579 7.2876 13.5715 7.3048 13.4909 7.33824C13.4103 7.37167 13.3371 7.42066 13.2754 7.48242L9.43362 11.3223L7.39064 9.2793Z" fill="black"/>
</svg>
