<svg width="20" height="20" viewBox="0 0 20 20" fill="none" xmlns="http://www.w3.org/2000/svg">
<path fill-rule="evenodd" clip-rule="evenodd" d="M13.1552 9.05203C13.2116 9.10361 13.2564 9.16489 13.2869 9.23235C13.3174 9.29982 13.3332 9.37214 13.3332 9.44519C13.3332 9.51823 13.3174 9.59055 13.2869 9.65802C13.2564 9.72548 13.2116 9.78676 13.1552 9.83834L9.51981 13.1702C9.46353 13.2219 9.39667 13.2629 9.32306 13.2909C9.24945 13.3189 9.17054 13.3333 9.09084 13.3333C9.01114 13.3333 8.93223 13.3189 8.85862 13.2909C8.78501 13.2629 8.71815 13.2219 8.66187 13.1702L6.84419 11.5043C6.78786 11.4526 6.74317 11.3913 6.71268 11.3239C6.6822 11.2564 6.6665 11.1841 6.6665 11.1111C6.6665 11.0381 6.6822 10.9658 6.71268 10.8983C6.74317 10.8309 6.78786 10.7696 6.84419 10.7179C6.95796 10.6137 7.11227 10.5551 7.27316 10.5551C7.35283 10.5551 7.43172 10.5695 7.50532 10.5974C7.57892 10.6254 7.6458 10.6663 7.70213 10.7179L9.09084 11.9918L12.2972 9.05203C12.3535 9.00031 12.4204 8.95928 12.494 8.93129C12.5676 8.9033 12.6465 8.88889 12.7262 8.88889C12.8059 8.88889 12.8848 8.9033 12.9584 8.93129C13.032 8.95928 13.0989 9.00031 13.1552 9.05203Z" fill="black"/>
<path fill-rule="evenodd" clip-rule="evenodd" d="M3.19439 6.22223V15.8519C3.19439 16.1073 3.29682 16.3522 3.47915 16.5328C3.66147 16.7134 3.90876 16.8148 4.16661 16.8148H15.8333C16.0911 16.8148 16.3384 16.7134 16.5207 16.5328C16.7031 16.3522 16.8055 16.1073 16.8055 15.8519V6.22223H3.19439ZM4.16661 3.33334C3.65091 3.33334 3.15634 3.53625 2.79168 3.89743C2.42703 4.25862 2.22217 4.74848 2.22217 5.25927L2.22217 15.8519C2.22217 16.3626 2.42703 16.8525 2.79168 17.2137C3.15634 17.5749 3.65091 17.7778 4.16661 17.7778H15.8333C16.349 17.7778 16.8436 17.5749 17.2082 17.2137C17.5729 16.8525 17.7777 16.3626 17.7777 15.8519V5.25927C17.7777 4.74848 17.5729 4.25862 17.2082 3.89743C16.8436 3.53625 16.349 3.33334 15.8333 3.33334H4.16661Z" fill="black"/>
<path fill-rule="evenodd" clip-rule="evenodd" d="M6.00011 2.22223C6.11798 2.22223 6.23103 2.30027 6.31438 2.43919C6.39773 2.5781 6.44455 2.76651 6.44455 2.96297V3.70371C6.44455 3.90017 6.39773 4.08858 6.31438 4.22749C6.23103 4.36641 6.11798 4.44445 6.00011 4.44445C5.88223 4.44445 5.76919 4.36641 5.68584 4.22749C5.60249 4.08858 5.55566 3.90017 5.55566 3.70371V2.96297C5.55566 2.76651 5.60249 2.5781 5.68584 2.43919C5.76919 2.30027 5.88223 2.22223 6.00011 2.22223V2.22223ZM14.0001 2.22223C14.118 2.22223 14.231 2.30027 14.3144 2.43919C14.3977 2.5781 14.4446 2.76651 14.4446 2.96297V3.70371C14.4446 3.90017 14.3977 4.08858 14.3144 4.22749C14.231 4.36641 14.118 4.44445 14.0001 4.44445C13.8822 4.44445 13.7692 4.36641 13.6858 4.22749C13.6025 4.08858 13.5557 3.90017 13.5557 3.70371V2.96297C13.5557 2.76651 13.6025 2.5781 13.6858 2.43919C13.7692 2.30027 13.8822 2.22223 14.0001 2.22223V2.22223Z" fill="black"/>
</svg>
