<svg width="20" height="20" viewBox="0 0 20 20" fill="none" xmlns="http://www.w3.org/2000/svg">
<path d="M10.2641 0C4.87134 0 0.5 4.36082 0.5 9.74055C0.5 13.8668 3.07418 17.3897 6.70699 18.8083C6.62086 18.0368 6.5445 16.8564 6.73875 16.0155C6.91713 15.2537 7.88412 11.1751 7.88412 11.1751C7.88412 11.1751 7.59152 10.5876 7.59152 9.72776C7.59152 8.37551 8.38076 7.36331 9.35753 7.36331C10.1914 7.36331 10.5951 7.9855 10.5951 8.73444C10.5951 9.56931 10.0637 10.8198 9.78697 11.9782C9.55484 12.9466 10.2738 13.7364 11.2317 13.7364C12.9659 13.7364 14.3019 11.9112 14.3019 9.2768C14.3019 6.95319 12.622 5.32184 10.2231 5.32184C7.44552 5.32184 5.81635 7.40414 5.81635 9.54616C5.81635 10.3841 6.13766 11.2854 6.54206 11.7711C6.62147 11.8692 6.63124 11.9551 6.60864 12.0538C6.53534 12.3585 6.36979 13.0282 6.33803 13.1617C6.29343 13.3427 6.19814 13.3805 6.0106 13.2951C4.79498 12.7333 4.02835 10.9557 4.02835 9.52117C4.02835 6.45226 6.26839 3.62711 10.4809 3.62711C13.8663 3.62711 16.5004 6.03909 16.5004 9.25121C16.5004 12.6126 14.3782 15.3165 11.4259 15.3165C10.4363 15.3165 9.50719 14.8052 9.17977 14.1958L8.5689 16.5097C8.3496 17.3574 7.75096 18.4202 7.34717 19.0649C8.26347 19.344 9.22741 19.5 10.239 19.5C15.6225 19.5 20 15.1422 20 9.75945C20 4.37971 15.6219 0.0219382 10.239 0.0219382L10.2641 0Z" fill="#999999"/>
</svg>
